<?xml version="1.0" standalone="no"?>
<!DOCTYPE svg PUBLIC "-//W3C//DTD SVG 20010904//EN"
 "http://www.w3.org/TR/2001/REC-SVG-20010904/DTD/svg10.dtd">
<svg version="1.0" xmlns="http://www.w3.org/2000/svg"
 width="1280.000000pt" height="953.000000pt" viewBox="0 0 1280.000000 953.000000"
 preserveAspectRatio="xMidYMid meet">
<metadata>
Created by potrace 1.15, written by Peter Selinger 2001-2017
</metadata>
<g transform="translate(0.000000,953.000000) scale(0.100000,-0.100000)"
fill="#4caf50" stroke="none">
<path d="M6295 9516 c-398 -68 -679 -332 -732 -685 -31 -209 21 -363 245 -718
142 -225 191 -330 207 -436 l7 -44 -109 -7 c-105 -7 -320 -28 -1733 -176 -366
-38 -777 -81 -913 -95 l-248 -26 -70 75 c-86 92 -150 127 -247 133 -133 9
-323 -73 -447 -192 -34 -33 -69 -70 -77 -83 -14 -21 -33 -24 -329 -55 -173
-19 -317 -31 -321 -28 -3 3 -42 239 -86 524 -43 284 -82 520 -85 523 -9 10
-317 -38 -317 -49 0 -8 82 -539 320 -2070 48 -313 91 -571 94 -574 5 -6 306
35 314 42 2 2 -42 299 -98 660 -56 361 -100 658 -98 660 5 5 514 65 550 65 20
0 42 -9 57 -24 15 -13 145 -85 291 -158 505 -256 709 -401 970 -686 109 -120
171 -172 260 -217 225 -114 461 -106 647 21 70 49 127 116 188 219 98 167 211
243 375 253 107 6 168 -7 275 -58 141 -68 253 -191 294 -324 10 -34 22 -101
25 -151 9 -121 20 -179 71 -390 58 -238 69 -327 55 -418 -25 -163 -63 -204
-425 -462 -353 -252 -474 -358 -583 -511 -227 -318 -321 -790 -231 -1154 25
-100 89 -241 151 -332 80 -117 111 -234 164 -608 19 -140 55 -352 79 -470 60
-298 72 -402 57 -491 -16 -94 -29 -116 -135 -229 -145 -153 -209 -277 -208
-402 0 -190 148 -301 452 -338 100 -12 292 -15 334 -4 114 27 180 108 212 262
13 63 14 103 7 227 -5 83 -8 213 -8 290 l0 140 62 180 c92 271 127 509 103
715 -23 206 -52 269 -239 530 -137 191 -201 306 -222 399 -16 68 -8 187 16
238 28 58 106 129 259 233 77 52 172 126 212 165 63 63 79 87 141 215 39 80
94 203 122 273 125 317 192 394 311 358 77 -23 112 -68 255 -323 118 -211 166
-280 259 -377 98 -102 215 -181 469 -316 193 -103 270 -157 291 -208 29 -70
-43 -273 -132 -368 -26 -28 -94 -85 -150 -126 -57 -41 -123 -98 -149 -126 -55
-63 -115 -184 -145 -292 -26 -97 -23 -201 17 -505 68 -518 83 -750 66 -983 -7
-89 -12 -189 -12 -222 1 -249 186 -420 435 -402 104 8 358 52 415 72 107 38
165 112 177 229 8 77 -4 88 -202 185 -192 94 -257 147 -307 248 -27 55 -33 80
-36 153 -7 143 27 260 149 516 104 218 151 326 239 544 146 363 383 1021 401
1110 15 76 7 255 -15 335 -63 229 -206 456 -425 676 -135 135 -270 238 -437
334 -318 182 -395 258 -412 409 -14 123 6 243 104 618 84 323 142 498 208 633
104 211 206 294 327 265 69 -17 127 -64 266 -215 311 -338 476 -445 687 -445
191 1 384 117 876 525 252 210 413 331 565 425 135 84 220 160 303 273 l64 85
66 -18 c37 -10 204 -55 372 -100 168 -45 309 -86 313 -90 7 -6 -44 -247 -225
-1068 -17 -78 -29 -144 -26 -147 2 -3 73 -20 157 -39 103 -22 154 -30 157 -22
2 6 49 218 104 471 150 682 227 1034 349 1590 60 275 111 513 113 529 l3 29
-145 33 c-80 18 -150 33 -156 33 -7 1 -19 -29 -27 -66 -8 -38 -66 -297 -127
-578 -61 -280 -114 -512 -116 -514 -2 -2 -126 32 -276 77 -150 44 -306 90
-345 102 -40 11 -73 23 -73 26 0 4 7 34 16 68 22 84 15 214 -15 281 -72 161
-296 256 -465 196 -101 -35 -167 -82 -288 -203 l-117 -117 -148 33 c-513 117
-924 149 -2046 160 -309 3 -483 9 -491 15 -7 6 -26 34 -41 63 -24 43 -29 65
-29 119 0 87 31 149 134 269 90 103 120 150 161 251 42 102 60 206 60 343 1
274 -99 508 -281 659 -62 52 -189 113 -285 137 -105 27 -293 34 -400 16z
m1885 -2181 c431 -25 762 -53 995 -86 149 -20 283 -44 290 -51 8 -7 -105 -138
-185 -217 -41 -40 -111 -101 -155 -136 -286 -223 -516 -302 -664 -228 -65 32
-95 72 -156 207 -103 229 -220 366 -415 486 l-65 40 50 0 c28 0 165 -7 305
-15z m-3390 -86 c-75 -42 -212 -103 -410 -184 -91 -37 -246 -105 -345 -151
-203 -94 -288 -119 -385 -111 -129 11 -235 69 -364 201 l-79 81 39 7 c21 5
354 44 739 88 385 45 727 85 760 89 99 14 103 12 45 -20z"/>
<path d="M640 7918 c-69 -11 -127 -22 -130 -24 -2 -3 26 -202 63 -442 187
-1209 280 -1807 283 -1810 3 -4 272 37 300 46 20 7 20 10 -32 342 -99 633
-294 1895 -294 1903 0 11 -52 7 -190 -15z"/>
<path d="M11995 7848 c-2 -7 -45 -197 -94 -423 -118 -540 -279 -1273 -342
-1558 -28 -126 -48 -231 -45 -234 7 -7 308 -75 311 -71 1 2 39 170 83 373 45
204 136 618 202 920 66 303 139 634 162 737 23 104 38 191 35 194 -3 4 -64 20
-134 35 -70 16 -138 31 -151 34 -13 3 -24 0 -27 -7z"/>
<path d="M305 7644 c-5 -1 -77 -12 -158 -24 l-148 -23 5 -26 c3 -14 67 -424
142 -911 75 -487 137 -886 138 -887 1 -1 73 9 160 22 87 14 159 25 162 25 2 0
1 6 -1 13 -2 6 -65 410 -140 897 -75 487 -139 892 -143 901 -4 9 -11 15 -17
13z"/>
<path d="M12477 7508 c-6 -23 -90 -406 -287 -1301 -55 -252 -100 -463 -100
-471 0 -8 52 -24 155 -46 85 -18 156 -32 158 -29 2 2 41 175 87 384 45 209
133 612 195 895 63 283 112 517 109 519 -3 4 -291 70 -305 71 -4 0 -9 -10 -12
-22z"/>
</g>
</svg>
